<?xml version="1.0" encoding="UTF-8" standalone="no"?>
<!-- Created with Inkscape (http://www.inkscape.org/) -->

<svg
   width="77.193413mm"
   height="22.230297mm"
   viewBox="0 0 77.193413 22.230297"
   version="1.1"
   id="svg1"
   xml:space="preserve"
   inkscape:version="1.3.2 (091e20e, 2023-11-25, custom)"
   sodipodi:docname="logov2.svg"
   inkscape:export-filename="logov2.svg"
   inkscape:export-xdpi="96"
   inkscape:export-ydpi="96"
   xmlns:inkscape="http://www.inkscape.org/namespaces/inkscape"
   xmlns:sodipodi="http://sodipodi.sourceforge.net/DTD/sodipodi-0.dtd"
   xmlns="http://www.w3.org/2000/svg"
   xmlns:svg="http://www.w3.org/2000/svg"><sodipodi:namedview
     id="namedview1"
     pagecolor="#ffffff"
     bordercolor="#000000"
     borderopacity="0.25"
     inkscape:showpageshadow="2"
     inkscape:pageopacity="0.0"
     inkscape:pagecheckerboard="0"
     inkscape:deskcolor="#d1d1d1"
     inkscape:document-units="mm"
     inkscape:zoom="2.5650675"
     inkscape:cx="51.460633"
     inkscape:cy="80.504703"
     inkscape:window-width="1920"
     inkscape:window-height="991"
     inkscape:window-x="-9"
     inkscape:window-y="-9"
     inkscape:window-maximized="1"
     inkscape:current-layer="layer1"
     showgrid="false"><inkscape:grid
       id="grid1"
       units="mm"
       originx="-69.805618"
       originy="-144.12292"
       spacingx="0.99999998"
       spacingy="1"
       empcolor="#0099e5"
       empopacity="0.30196078"
       color="#0099e5"
       opacity="0.14901961"
       empspacing="5"
       dotted="false"
       gridanglex="30"
       gridanglez="30"
       visible="false" /></sodipodi:namedview><defs
     id="defs1" /><g
     inkscape:label="Capa 1"
     inkscape:groupmode="layer"
     id="layer1"
     transform="translate(-69.80562,-144.12292)"><path
       style="font-size:19.7817px;font-family:'Glacial Indifference';-inkscape-font-specification:'Glacial Indifference, Normal';stroke:#000000;stroke-width:0.37149"
       d="m 82.928597,159.66327 h -1.523191 c -0.474761,0.87039 -1.127557,1.58253 -1.958388,2.09686 -0.830832,0.53411 -1.760571,0.79127 -2.749656,0.79127 -1.483628,0 -2.749657,-0.53411 -3.798087,-1.64188 -1.028648,-1.04843 -1.523191,-2.33424 -1.523191,-3.83765 0,-1.50341 0.494543,-2.78922 1.523191,-3.85744 0.474761,-0.49454 1.04843,-0.89017 1.701226,-1.1869 0.633015,-0.29672 1.266029,-0.45498 1.899044,-0.45498 0.613232,0 1.147338,0.0791 1.622099,0.2176 1.444064,0.4352 2.532058,1.30559 3.26398,2.63097 h 1.523191 c -0.514324,-1.26603 -1.325374,-2.29468 -2.45293,-3.08595 -1.147339,-0.79126 -2.393586,-1.1869 -3.758523,-1.1869 -1.879262,0 -3.461798,0.69236 -4.76739,2.0573 -0.613233,0.63301 -1.087994,1.38472 -1.424283,2.21555 -0.35607,0.83083 -0.514324,1.72101 -0.514324,2.65075 0,1.89904 0.633015,3.50136 1.938607,4.84651 1.305592,1.38472 2.888128,2.0573 4.76739,2.0573 1.364937,0 2.611184,-0.39563 3.778304,-1.1869 1.127557,-0.79127 1.938607,-1.81992 2.452931,-3.12551 z m 28.545023,-2.61119 c 0,-0.9693 -0.19782,-1.85948 -0.55389,-2.69031 -0.35607,-0.83083 -0.85061,-1.54297 -1.46384,-2.13642 -0.63302,-0.59345 -1.36494,-1.04843 -2.19577,-1.38472 -0.85062,-0.33629 -1.76057,-0.51432 -2.7101,-0.51432 h -3.52114 v 13.45155 h 3.52114 c 0.94953,0 1.85948,-0.15825 2.7101,-0.49454 0.83083,-0.33629 1.56275,-0.81105 2.19577,-1.4045 0.61323,-0.59345 1.10777,-1.28581 1.46384,-2.11664 0.35607,-0.83083 0.55389,-1.72101 0.55389,-2.7101 z m -1.34516,0 c 0,1.54298 -0.55388,2.82879 -1.6221,3.83765 -1.06821,1.00887 -2.3738,1.50341 -3.91677,1.50341 h -2.17599 v -10.68211 h 2.17599 c 1.54297,0 2.84856,0.51432 3.91677,1.5034 1.06822,1.02865 1.6221,2.31446 1.6221,3.83765 z m 11.71079,6.72578 v -1.28581 h -6.60709 v -4.78717 h 6.40927 v -1.30559 h -6.40927 v -4.78717 h 6.60709 v -1.28581 h -7.99181 v 13.45155 z m 5.14326,-4.94542 2.45293,-6.19167 2.43315,6.19167 z m 8.34787,4.94542 -5.89494,-14.38129 -5.91473,14.38129 h 1.50341 l 1.44406,-3.65961 h 5.91473 l 1.44406,3.65961 z"
       id="text500"
       aria-label="C   DEA" /><path
       style="font-size:32.1453px;font-family:'Glacial Indifference';-inkscape-font-specification:'Glacial Indifference, Normal';fill:#424874;stroke:#424874;stroke-width:0.37149"
       d="m 133.95518,146.39811 h 5.30397 v 19.76937 h 2.25017 v -19.76937 h 5.30398 v -2.08944 h -5.30398 -2.25017 -5.30397 z"
       id="text501"
       aria-label="T" /><g
       id="g1"><path
         id="path500"
         style="fill:#424874;stroke:#424874;stroke-width:0.456325"
         d="m 98.786095,156.99959 a 7.0870519,7.2316513 0 0 1 -7.087052,7.23165 7.0870519,7.2316513 0 0 1 -7.087052,-7.23165 7.0870519,7.2316513 0 0 1 7.087052,-7.23165 7.0870519,7.2316513 0 0 1 7.087052,7.23165 z" /><path
         d="m -104.61104,-135.20038 v -0.80483 l -4.11358,-1.94501 4.11358,-1.95618 v -0.80483 l -4.76192,2.3586 v 0.79365 z"
         id="text502-3"
         style="font-size:11.1782px;font-family:'Glacial Indifference';-inkscape-font-specification:'Glacial Indifference, Normal';fill:#ececec;stroke:#ececec;stroke-width:0.129182"
         transform="matrix(-0.87526895,0.00648191,-0.00496593,-1.1424692,0,0)"
         aria-label="&lt;" /><path
         d="m 91.125648,160.08584 -0.01593,-0.91936 -3.638328,-2.14843 3.561131,-2.30794 -0.01593,-0.91936 -4.120537,2.77919 0.0157,0.90659 z"
         id="use2"
         style="font-size:11.1782px;font-family:'Glacial Indifference';-inkscape-font-specification:'Glacial Indifference, Normal';fill:#ececec;stroke:#ececec;stroke-width:0.129182"
         aria-label="&lt;" /></g></g></svg>
